<svg width="120" height="35" viewBox="0 0 120 35" fill="none" xmlns="http://www.w3.org/2000/svg">
<path d="M18.3748 32.0833C10.3205 32.0833 3.7915 25.5543 3.7915 17.5C3.7915 9.44559 10.3205 2.91663 18.3748 2.91663C26.4292 2.91663 32.9582 9.44559 32.9582 17.5C32.9582 25.5543 26.4292 32.0833 18.3748 32.0833ZM18.3748 29.1666C21.469 29.1666 24.4365 27.9375 26.6244 25.7495C28.8123 23.5616 30.0415 20.5942 30.0415 17.5C30.0415 14.4058 28.8123 11.4383 26.6244 9.25038C24.4365 7.06246 21.469 5.83329 18.3748 5.83329C15.2806 5.83329 12.3132 7.06246 10.1253 9.25038C7.93733 11.4383 6.70817 14.4058 6.70817 17.5C6.70817 20.5942 7.93733 23.5616 10.1253 25.7495C12.3132 27.9375 15.2806 29.1666 18.3748 29.1666ZM13.9998 11.6666H22.7498L26.3957 16.7708L18.3748 24.7916L10.354 16.7708L13.9998 11.6666ZM15.5019 14.5833L14.1603 16.4645L18.3748 20.6791L22.5894 16.4645L21.2478 14.5833H15.5019Z" fill="#AA70FE"/>
<path d="M52.6133 17.6953L58.9316 24.8047V25H55.6797L50.1914 18.7793V25H47.457V10.9961H50.1914V16.6797L55.4941 10.9961H58.7168V11.2012L52.6133 17.6953ZM63.9805 25.1758C62.3529 25.1758 61.1061 24.6842 60.2402 23.7012C59.3613 22.7246 58.9219 21.4323 58.9219 19.8242C58.9219 18.2161 59.3613 16.9141 60.2402 15.918C61.1191 14.9219 62.3659 14.4238 63.9805 14.4238C65.582 14.4238 66.8223 14.9219 67.7012 15.918C68.5801 16.9141 69.0195 18.2161 69.0195 19.8242C69.0195 21.4128 68.5866 22.6986 67.7207 23.6816C66.8418 24.6777 65.5951 25.1758 63.9805 25.1758ZM63.9805 22.8223C65.5234 22.8223 66.2949 21.8229 66.2949 19.8242C66.2949 17.793 65.5234 16.7773 63.9805 16.7773C62.431 16.7773 61.6562 17.793 61.6562 19.8242C61.6562 21.8229 62.431 22.8223 63.9805 22.8223ZM72.2422 13.3008C71.6888 13.3008 71.2754 13.1543 71.002 12.8613C70.722 12.5814 70.582 12.181 70.582 11.6602C70.582 11.1719 70.722 10.778 71.002 10.4785C71.2819 10.1986 71.6953 10.0586 72.2422 10.0586C72.7565 10.0586 73.1634 10.1986 73.4629 10.4785C73.7559 10.7715 73.9023 11.1654 73.9023 11.6602C73.9023 12.1875 73.7559 12.5879 73.4629 12.8613C73.1699 13.1543 72.763 13.3008 72.2422 13.3008ZM70.8848 25V14.5996H73.5605V25H70.8848ZM75.8262 25V14.5996H78.2285L78.4238 15.7812H78.502C79.1921 14.8763 80.1784 14.4238 81.4609 14.4238C82.6198 14.4238 83.541 14.7559 84.2246 15.4199C84.9082 16.1035 85.25 17.0247 85.25 18.1836V25H82.5645V18.9355C82.5645 17.5488 81.9232 16.8555 80.6406 16.8555C80.0091 16.8555 79.498 17.0703 79.1074 17.5C78.7038 17.9232 78.502 18.5026 78.502 19.2383V25H75.8262ZM87.5059 29.5801V14.5996H89.9082L90.1816 15.7227H90.2695C90.9401 14.8568 91.8971 14.4238 93.1406 14.4238C94.4232 14.4238 95.4583 14.9154 96.2461 15.8984C97.0208 16.888 97.4082 18.1966 97.4082 19.8242C97.4082 21.3997 97.0273 22.6855 96.2656 23.6816C95.5039 24.6777 94.4622 25.1758 93.1406 25.1758C91.8971 25.1758 90.9401 24.7428 90.2695 23.877H90.1816V29.5801H87.5059ZM92.3887 22.8223C93.1764 22.8223 93.7624 22.5423 94.1465 21.9824C94.5046 21.4486 94.6836 20.7292 94.6836 19.8242C94.6836 18.9062 94.5046 18.1706 94.1465 17.6172C93.7624 17.0573 93.1764 16.7773 92.3887 16.7773C91.6074 16.7773 91.0247 17.0573 90.6406 17.6172C90.2695 18.1771 90.084 18.9128 90.084 19.8242C90.084 20.7422 90.2695 21.4616 90.6406 21.9824C91.0052 22.5423 91.5879 22.8223 92.3887 22.8223ZM103.746 25.1758C102.118 25.1758 100.872 24.6842 100.006 23.7012C99.127 22.7246 98.6875 21.4323 98.6875 19.8242C98.6875 18.2161 99.127 16.9141 100.006 15.918C100.885 14.9219 102.132 14.4238 103.746 14.4238C105.348 14.4238 106.588 14.9219 107.467 15.918C108.346 16.9141 108.785 18.2161 108.785 19.8242C108.785 21.4128 108.352 22.6986 107.486 23.6816C106.607 24.6777 105.361 25.1758 103.746 25.1758ZM103.746 22.8223C105.289 22.8223 106.061 21.8229 106.061 19.8242C106.061 17.793 105.289 16.7773 103.746 16.7773C102.197 16.7773 101.422 17.793 101.422 19.8242C101.422 21.8229 102.197 22.8223 103.746 22.8223ZM110.65 25V10.1953H113.326V25H110.65ZM115.592 25V10.1953H118.268V25H115.592Z" fill="white"/>
</svg>
