<svg width="85" height="85" viewBox="0 0 85 85" fill="none" xmlns="http://www.w3.org/2000/svg">
<path d="M42.8751 77.5002C23.5446 77.5002 7.87512 61.8307 7.87512 42.5002C7.87512 23.1697 23.5446 7.50018 42.8751 7.50018C62.2056 7.50018 77.8751 23.1697 77.8751 42.5002C77.8751 61.8307 62.2056 77.5002 42.8751 77.5002ZM42.8751 70.5002C50.3012 70.5002 57.4231 67.5502 62.6741 62.2992C67.9251 57.0482 70.8751 49.9263 70.8751 42.5002C70.8751 35.0741 67.9251 27.9522 62.6741 22.7012C57.4231 17.4502 50.3012 14.5002 42.8751 14.5002C35.4491 14.5002 28.3272 17.4502 23.0761 22.7012C17.8251 27.9522 14.8751 35.0741 14.8751 42.5002C14.8751 49.9263 17.8251 57.0482 23.0761 62.2992C28.3272 67.5502 35.4491 70.5002 42.8751 70.5002ZM32.3751 28.5002H53.3751L62.1251 40.7502L42.8751 60.0002L23.6251 40.7502L32.3751 28.5002ZM35.9801 35.5002L32.7601 40.0152L42.8751 50.1302L52.9901 40.0152L49.7701 35.5002H35.9801Z" fill="white"/>
</svg>
